<?xml version="1.0" standalone="no"?><!DOCTYPE svg PUBLIC "-//W3C//DTD SVG 1.1//EN" "http://www.w3.org/Graphics/SVG/1.1/DTD/svg11.dtd"><svg t="1547101605090" class="icon" style="" viewBox="0 0 1028 1024" version="1.1" xmlns="http://www.w3.org/2000/svg" p-id="4412" xmlns:xlink="http://www.w3.org/1999/xlink" width="200.78125" height="200"><defs><style type="text/css"></style></defs><path d="M399.989381 629.067506 50.658003 629.067506c-23.261886 0-44.201432-20.967904-44.201432-44.314865L6.456571 454.359279c0-23.233527 20.938533-44.201432 44.201432-44.201432l349.330366 0L399.988369 58.532487c0-23.290244 20.938533-41.991512 44.228777-41.991512l130.449066 0c23.264924 0 44.202444 18.701268 44.202444 41.991512l0 351.625361 351.652706 0c23.262899 0 41.905424 20.966891 41.905424 44.201432l0 130.393362c0 23.346961-18.642526 44.314865-41.905424 44.314865l-351.652706 0 0 346.921939c0 23.346961-20.93752 41.933783-44.202444 41.933783L444.218159 1017.923227c-23.291257 0-44.228777-18.587835-44.228777-41.933783L399.989381 629.067506z" p-id="4413"></path></svg>