<?xml version="1.0" standalone="no"?><!DOCTYPE svg PUBLIC "-//W3C//DTD SVG 1.1//EN" "http://www.w3.org/Graphics/SVG/1.1/DTD/svg11.dtd"><svg t="1547884934971" class="icon" style="" viewBox="0 0 1024 1024" version="1.1" xmlns="http://www.w3.org/2000/svg" p-id="5489" xmlns:xlink="http://www.w3.org/1999/xlink" width="200" height="200"><defs><style type="text/css"></style></defs><path d="M989.499077 526.178462C840.861538 377.540923 692.381538 228.824615 543.507692 80.344615 524.603077 61.518769 506.407385 42.220308 484.430769 26.387692c-22.921846-16.541538-46.710154-25.993846-74.830769-25.993846C359.660308 0.787692 309.720615 0.630154 259.938462 0.630154c-52.066462 0-104.211692-0.393846-156.278154 0.157538A102.951385 102.951385 0 0 0 0.630154 105.235692c-0.157538 103.187692-0.157538 206.375385 0 309.563077 0 8.034462 1.024 16.226462 2.678154 24.103385 6.144 28.514462 23.552 51.042462 43.008 70.656 160.137846 161.161846 320.905846 321.614769 481.595077 482.067692a110.434462 110.434462 0 0 0 155.017846-0.315077c102.793846-102.557538 205.508923-205.272615 307.987692-308.224a110.592 110.592 0 0 0-1.417846-156.908307z m-632.201846-64.275693a102.006154 102.006154 0 0 1-101.612308-102.242461A102.084923 102.084923 0 0 1 358.4 258.520615a102.163692 102.163692 0 0 1 101.139692 101.769847c0 56.162462-46.001231 101.769846-102.242461 101.612307z" p-id="5490"></path></svg>