<?xml version="1.0" standalone="no"?><!DOCTYPE svg PUBLIC "-//W3C//DTD SVG 1.1//EN" "http://www.w3.org/Graphics/SVG/1.1/DTD/svg11.dtd"><svg t="1547728231796" class="icon" style="" viewBox="0 0 1024 1024" version="1.1" xmlns="http://www.w3.org/2000/svg" p-id="3793" xmlns:xlink="http://www.w3.org/1999/xlink" width="200" height="200"><defs><style type="text/css"></style></defs><path d="M614.4 307.2V51.2c0-28.16-23.04-51.2-51.2-51.2H51.2C23.04 0 0 23.04 0 51.2v921.6c0 28.16 23.04 51.2 51.2 51.2h921.6c28.16 0 51.2-23.04 51.2-51.2V358.4c0-28.16-23.04-51.2-51.2-51.2h-358.4zM385.536 819.2H228.864c-13.312 0-24.064-10.752-24.064-24.064v-54.272c0-13.312 10.752-24.064 24.064-24.064h156.672c13.312 0 24.064 10.752 24.064 24.064v54.272c0 13.312-10.752 24.064-24.064 24.064z m0-256H228.864c-13.312 0-24.064-10.752-24.064-24.064V485.376c0-13.312 10.752-24.064 24.064-24.064h156.16c13.312 0 24.064 10.752 24.064 24.064v53.76c0.512 13.312-10.24 24.064-23.552 24.064z m-0.512-256H229.376c-13.312 0-24.576-10.752-24.576-24.576V229.376c0-13.312 10.752-24.576 24.576-24.576h156.16c13.312 0 24.576 10.752 24.576 24.576v53.76c-0.512 13.312-11.264 24.064-25.088 24.064z m410.112 512h-53.76c-13.312 0-24.064-10.752-24.064-24.064v-53.76c0-13.312 10.752-24.064 24.064-24.064h53.76c13.312 0 24.064 10.752 24.064 24.064v53.76c0 13.312-10.752 24.064-24.064 24.064z m-0.512-204.8h-53.76c-13.312 0-24.576-10.752-24.576-24.576v-53.76c0-13.312 10.752-24.064 24.064-24.064h53.76c13.312 0 24.576 10.752 24.576 24.576v53.76c0.512 13.312-10.24 24.064-24.064 24.064z m24.576 0" p-id="3794"></path></svg>