<?xml version="1.0" standalone="no"?><!DOCTYPE svg PUBLIC "-//W3C//DTD SVG 1.1//EN" "http://www.w3.org/Graphics/SVG/1.1/DTD/svg11.dtd"><svg t="1547705520010" class="icon" style="" viewBox="0 0 1024 1024" version="1.1" xmlns="http://www.w3.org/2000/svg" p-id="21658" xmlns:xlink="http://www.w3.org/1999/xlink" width="200" height="200"><defs><style type="text/css"></style></defs><path d="M512.3 912.6c-220.6 0-400-179.4-400-400s179.4-400 400-400 400 179.4 400 400-179.5 400-400 400z m0-752.9c-194.6 0-353 158.3-353 352.9s158.4 352.9 353 352.9 352.9-158.3 352.9-352.9-158.3-352.9-352.9-352.9z" p-id="21659"></path><path d="M794.6 512.6c0 155.9-126.4 282.4-282.4 282.4-155.9 0-282.4-126.4-282.4-282.4s126.4-282.4 282.4-282.4c156 0 282.4 126.5 282.4 282.4z" p-id="21660"></path></svg>
