<?xml version="1.0" standalone="no"?><!DOCTYPE svg PUBLIC "-//W3C//DTD SVG 1.1//EN" "http://www.w3.org/Graphics/SVG/1.1/DTD/svg11.dtd"><svg t="1547689193288" class="icon" style="" viewBox="0 0 1130 1024" version="1.1" xmlns="http://www.w3.org/2000/svg" p-id="2782" xmlns:xlink="http://www.w3.org/1999/xlink" width="220.703125" height="200"><defs><style type="text/css"></style></defs><path d="M904.490667 883.434667h69.568v-70.272h-69.568v70.272zM556.586667 953.706667h139.136V1024h-139.136v-70.293333z m544.490666-829.226667L965.909333 8.362667a34.538667 34.538667 0 0 0-35.84-5.696l-104.618666 43.648-84.330667 53.418666a35.2 35.2 0 0 0-15.936 33.237334l10.517333 103.466666-97.344 67.562667-114.730666 13.696-91.712-50.346667-56.96-112.213333a34.624 34.624 0 0 0-46.208-15.552L205.098667 200.533333c-11.946667 5.888-19.541333 18.133333-19.541334 31.573334v46.08l-41.258666 40.64H97.408c-8.96 0-17.685333 3.498667-24.149333 9.834666L10.666667 389.610667a35.413333 35.413333 0 0 0 0 50.602666l54.890666 53.418667 31.530667 150.826667c1.664 7.957333 5.973333 15.125333 12.309333 20.16l114.176 92.437333c6.186667 4.992 13.845333 7.722667 21.76 7.722667h125.802667v76.48c0 19.413333 15.573333 35.136 34.773333 35.136h140.074667l63.381333 43.584a34.410667 34.410667 0 0 0 36.8 1.493333l86.122667-49.706667 118.826667-45.205333a35.2 35.2 0 0 0 15.808-12.16l74.794666-103.722667c4.309333-6.058667 6.677333-13.290667 6.677334-20.693333v-102.314667c0-9.493333-3.84-18.56-10.496-25.173333l-43.690667-42.88 55.296-36.821333c5.162667-3.370667 9.258667-8.085333 12.053333-13.632l38.826667-78.229334 98.154667-69.034666c9.322667-6.592 14.890667-17.322667 14.890666-28.8V151.253333c0-10.304-4.522667-20.117333-12.309333-26.773333z" p-id="2783"></path></svg>