<?xml version="1.0" standalone="no"?><!DOCTYPE svg PUBLIC "-//W3C//DTD SVG 1.1//EN" "http://www.w3.org/Graphics/SVG/1.1/DTD/svg11.dtd"><svg t="1547689329090" class="icon" style="" viewBox="0 0 1130 1024" version="1.1" xmlns="http://www.w3.org/2000/svg" p-id="5711" xmlns:xlink="http://www.w3.org/1999/xlink" width="220.703125" height="200"><defs><style type="text/css"></style></defs><path d="M904.490667 883.434667h69.568v-70.272h-69.568v70.272zM556.586667 953.706667h139.136V1024h-139.136v-70.293333z m544.490666-829.226667L965.909333 8.362667a34.538667 34.538667 0 0 0-35.84-5.696l-104.618666 43.648-84.330667 53.418666a35.2 35.2 0 0 0-15.936 33.237334l10.517333 103.466666-97.344 67.562667-114.730666 13.696-91.712-50.346667-56.96-112.213333a34.624 34.624 0 0 0-46.208-15.552L205.098667 200.533333c-11.946667 5.888-19.541333 18.133333-19.541334 31.573334v46.08l-41.258666 40.64H97.408c-8.96 0-17.685333 3.498667-24.149333 9.834666L10.666667 389.610667a35.413333 35.413333 0 0 0 0 50.602666l54.890666 53.418667 31.530667 150.826667c1.664 7.957333 5.973333 15.125333 12.309333 20.16l114.176 92.437333c6.186667 4.992 13.845333 7.722667 21.76 7.722667h125.802667v76.48c0 19.413333 15.573333 35.136 34.773333 35.136h140.074667l63.381333 43.584a34.410667 34.410667 0 0 0 36.8 1.493333l86.122667-49.706667 118.826667-45.205333a35.2 35.2 0 0 0 15.808-12.16l74.794666-103.722667c4.309333-6.058667 6.677333-13.290667 6.677334-20.693333v-102.314667c0-9.493333-3.84-18.56-10.496-25.173333l-43.690667-42.88 55.296-36.821333c5.162667-3.370667 9.258667-8.085333 12.053333-13.632l38.826667-78.229334 98.154667-69.034666c9.322667-6.592 14.890667-17.322667 14.890666-28.8V151.253333c0-10.304-4.522667-20.117333-12.309333-26.773333z m-57.258666 150.186667l-90.517334 63.786666a35.349333 35.349333 0 0 0-11.2 13.056l-38.549333 77.717334-83.904 55.616a35.349333 35.349333 0 0 0-5.141333 54.528l64.213333 63.125333v76.032l-61.994667 86.058667-114.026666 43.84-72.085334 41.173333-54.336-37.354667a34.218667 34.218667 0 0 0-19.626666-6.122666h-116.053334v-76.48c0-19.413333-15.573333-35.136-34.773333-35.136H257.493333l-94.976-76.842667-31.104-149.12a34.922667 34.922667 0 0 0-9.962666-18.090667l-36.522667-35.626666 31.936-25.813334h41.685333c9.045333 0 17.813333-3.562667 24.277334-9.962666l61.866666-60.928c6.613333-6.549333 10.432-15.594667 10.432-25.109334l-5.781333-11.008 79.317333-64.042666 46.272 91.157333c3.2 6.250667 8.192 11.434667 14.314667 14.826667l110.912 60.949333c6.336 3.370667 13.568 4.778667 20.736 3.925333l134.144-16.085333c5.546667-0.704 10.922667-2.688 15.573333-5.909333l121.472-84.202667a35.2 35.2 0 0 0 14.890667-32.554667l-10.432-102.549333 60.8-38.997333 79.616-32.746667 106.858667 91.776v107.114667z" p-id="5712"></path></svg>