<?xml version="1.0" standalone="no"?><!DOCTYPE svg PUBLIC "-//W3C//DTD SVG 1.1//EN" "http://www.w3.org/Graphics/SVG/1.1/DTD/svg11.dtd"><svg t="1547690665653" class="icon" style="" viewBox="0 0 1138 1024" version="1.1" xmlns="http://www.w3.org/2000/svg" p-id="10238" xmlns:xlink="http://www.w3.org/1999/xlink" width="222.265625" height="200"><defs><style type="text/css"></style></defs><path d="M528.266102 630.093677h81.241623a39.358633 39.358633 0 1 0 0-78.681712h-81.241623a39.358633 39.358633 0 1 0 0 78.681712z m0 157.576751h81.241623a39.394188 39.394188 0 1 0 0-78.717267h-81.241623a39.394188 39.394188 0 1 0 0 78.717267z m446.95337-708.917607h-162.483248v-39.394188a40.709698 40.709698 0 0 0-81.348286 0v39.394188h-325.037603v-39.394188a40.638589 40.638589 0 0 0-81.241623 0v39.394188h-162.589911a160.598868 160.598868 0 0 0-162.518801 157.576751v630.058123a160.563314 160.563314 0 0 0 162.518801 157.576751h812.700671a160.563314 160.563314 0 0 0 162.518801-157.576751v-630.058123a160.598868 160.598868 0 0 0-162.518801-157.576751z m81.241623 787.670428a80.281657 80.281657 0 0 1-81.277178 78.788376h-812.665116a80.246103 80.246103 0 0 1-81.241623-78.788376v-472.588035h975.219471v472.552481z m0-551.305302h-975.183917v-78.788375a80.317211 80.317211 0 0 1 81.241623-78.788376h162.518802v39.358634a40.638589 40.638589 0 0 0 81.241623 0v-39.358634h325.073158v39.358634a40.674143 40.674143 0 0 0 81.277177 0v-39.358634h162.483248a80.317211 80.317211 0 0 1 81.277177 78.788376v78.788375zM284.434568 787.670428h81.277178a39.394188 39.394188 0 1 0 0-78.717267H284.434568a39.394188 39.394188 0 1 0 0 78.717267z m487.591959-157.576751H853.303705a39.358633 39.358633 0 1 0 0-78.681712h-81.277178a39.358633 39.358633 0 1 0 0 78.681712z m-487.591959 0h81.277178a39.358633 39.358633 0 1 0 0-78.681712H284.434568a39.358633 39.358633 0 1 0 0 78.681712z m487.591959 157.576751H853.303705a39.394188 39.394188 0 1 0 0-78.717267h-81.277178a39.394188 39.394188 0 1 0 0 78.717267z m0 0" p-id="10239"></path></svg>