<?xml version="1.0" standalone="no"?><!DOCTYPE svg PUBLIC "-//W3C//DTD SVG 1.1//EN" "http://www.w3.org/Graphics/SVG/1.1/DTD/svg11.dtd"><svg t="1547690670358" class="icon" style="" viewBox="0 0 1070 1024" version="1.1" xmlns="http://www.w3.org/2000/svg" p-id="10701" xmlns:xlink="http://www.w3.org/1999/xlink" width="208.984375" height="200"><defs><style type="text/css"></style></defs><path d="M967.556494 117.765448H777.297486v87.0313a34.149053 34.149053 0 0 1-68.298105 0V117.765448H361.004272v87.0313a34.149053 34.149053 0 0 1-68.298106 0V117.765448H102.447158a102.69108 102.69108 0 0 0-102.447158 102.447158V921.552842a102.674819 102.674819 0 0 0 102.447158 102.447158h865.109336a102.674819 102.674819 0 0 0 102.447158-102.447158V220.163821a102.69108 102.69108 0 0 0-102.447158-102.398373zM361.004272 776.386845a32.620476 32.620476 0 0 1-32.522908 32.522907h-102.268282a32.620476 32.620476 0 0 1-32.522907-32.522907v-3.252291a32.620476 32.620476 0 0 1 32.522907-32.522907H328.481364a32.620476 32.620476 0 0 1 32.522908 32.522907z m0-165.525337a32.620476 32.620476 0 0 1-32.522908 32.522907h-102.268282a32.620476 32.620476 0 0 1-32.522907-32.522907v-3.252291a32.620476 32.620476 0 0 1 32.522907-32.522907H328.481364a32.620476 32.620476 0 0 1 32.522908 32.522907z m257.613949 165.525337a32.620476 32.620476 0 0 1-32.522907 32.522907h-102.186975a32.620476 32.620476 0 0 1-32.522908-32.522907v-3.252291a32.620476 32.620476 0 0 1 32.522908-32.522907h102.186975a32.620476 32.620476 0 0 1 32.522907 32.522907z m0-165.525337a32.620476 32.620476 0 0 1-32.522907 32.522907h-102.186975a32.620476 32.620476 0 0 1-32.522908-32.522907v-3.252291a32.620476 32.620476 0 0 1 32.522908-32.522907h102.186975a32.620476 32.620476 0 0 1 32.522907 32.522907z m257.695257 165.525337a32.620476 32.620476 0 0 1-32.522908 32.522907H741.522288a32.620476 32.620476 0 0 1-32.522907-32.522907v-3.252291a32.620476 32.620476 0 0 1 32.522907-32.522907h102.203236a32.620476 32.620476 0 0 1 32.522908 32.522907z m0-165.525337a32.620476 32.620476 0 0 1-32.522908 32.522907H741.522288a32.620476 32.620476 0 0 1-32.522907-32.522907v-3.252291a32.620476 32.620476 0 0 1 32.522907-32.522907h102.203236a32.620476 32.620476 0 0 1 32.522908 32.522907z m85.323847-230.392276a32.620476 32.620476 0 0 1-32.522907 32.522907H140.889235a32.620476 32.620476 0 0 1-32.522908-32.522907v-3.252291a32.620476 32.620476 0 0 1 32.522908-32.522907h788.225183a32.620476 32.620476 0 0 1 32.522907 32.522907zM361.004272 34.149053a34.149053 34.149053 0 0 0-68.298106 0v83.616395h68.298106zM777.297486 34.149053a34.149053 34.149053 0 0 0-68.298105 0v83.616395h68.298105z" p-id="10702"></path></svg>