<?xml version="1.0" standalone="no"?><!DOCTYPE svg PUBLIC "-//W3C//DTD SVG 1.1//EN" "http://www.w3.org/Graphics/SVG/1.1/DTD/svg11.dtd"><svg t="1546674963521" class="icon" style="" viewBox="0 0 1024 1024" version="1.1" xmlns="http://www.w3.org/2000/svg" p-id="5829" xmlns:xlink="http://www.w3.org/1999/xlink" width="200" height="200"><defs><style type="text/css"></style></defs><path d="M967.68 105.472h-904.704c-32.256 0-57.856 19.456-57.856 52.224v586.752c0 26.112 25.6 52.224 51.2 52.224h362.496l-9.216 64h-70.656c-25.6 0-45.056 32.768-45.056 58.88h430.08c6.656-19.456-12.8-58.88-38.4-58.88h-70.656l-10.752-64h363.52c25.6 0 51.2-26.112 51.2-52.224V157.184c0-32.256-25.6-51.712-51.2-51.712z m-6.656 540.672h-891.904V163.84h891.904v482.304z" p-id="5830"></path><path d="M325.632 368.128c21.504 0 43.52-9.216 58.368-24.576 15.36-15.36 24.064-37.376 24.064-59.392s-8.704-44.032-24.064-59.392-36.864-24.576-58.368-24.576-43.52 9.216-58.368 24.576c-15.36 15.36-24.064 37.376-24.064 59.392s8.704 44.032 24.064 59.392c15.36 15.872 36.864 24.576 58.368 24.576zM860.672 399.872h-286.72v200.192h286.72v-200.192zM860.672 242.176h-286.72v19.456h286.72v-19.456zM860.672 306.688h-286.72v19.456h286.72v-19.456z" p-id="5831"></path><path d="M182.272 441.856h287.232v19.456h-287.232zM182.272 511.488h287.232v19.456h-287.232zM182.272 580.608h287.232v19.456h-287.232z" p-id="5832"></path></svg>