<?xml version="1.0" standalone="no"?><!DOCTYPE svg PUBLIC "-//W3C//DTD SVG 1.1//EN" "http://www.w3.org/Graphics/SVG/1.1/DTD/svg11.dtd"><svg t="1546854371031" class="icon" style="" viewBox="0 0 1024 1024" version="1.1" xmlns="http://www.w3.org/2000/svg" p-id="7762" xmlns:xlink="http://www.w3.org/1999/xlink" width="200" height="200"><defs><style type="text/css"></style></defs><path d="M786.258731 162.691589c31.228726 22.162322 58.427939 46.843089 82.605017 75.04968 24.177078 27.702902 44.828333 57.92425 61.953763 90.160354 17.12543 32.236104 30.221348 66.486965 39.287752 102.752582 9.066404 36.265617 13.599606 73.034924 13.599606 109.80423 0 63.968519-12.088539 124.411215-36.769306 180.320708-24.680767 55.909493-57.420561 105.271028-99.226758 146.573537-41.806198 41.806198-90.664043 74.545991-146.573537 99.226758-55.909493 24.680767-116.352189 36.769306-180.320708 36.769306-63.46483 0-122.900148-12.088539-179.31333-36.769306-55.909493-24.680767-105.271028-57.420561-147.077226-99.226758-41.806198-41.806198-75.04968-90.664043-99.226758-146.573537-24.177078-55.909493-36.265617-116.352189-36.265617-180.320708 0-36.265617 4.533202-72.531235 13.095917-107.285785 8.562715-35.258239 20.651254-68.501722 36.769306-100.234137 15.614363-31.732415 35.258239-61.450074 58.931628-88.649287 23.1697-27.702902 49.361535-52.383669 78.575504-74.545991 15.110674-11.081161 31.732415-15.110674 48.857846-12.592228 17.62912 2.518446 31.732415 11.58485 42.813576 25.688146 11.081161 14.606985 15.110674 30.725037 12.592228 48.354156-2.518446 18.132809-11.58485 32.236104-25.688146 43.317265-43.317265 31.732415-76.560748 70.516478-99.730448 116.855878-23.1697 46.3394-34.75455 95.700935-34.75455 148.588293 0 45.332022 8.562715 88.145598 25.688146 128.440728 17.12543 40.29513 40.798819 75.553369 71.020167 105.271028s64.975898 53.894737 105.271028 71.523856c40.29513 17.62912 83.108706 26.191835 128.440728 26.191835 45.332022 0 88.145598-8.562715 128.440728-26.191835 40.29513-17.62912 75.553369-41.302509 105.271028-71.523856s53.894737-64.975898 71.523856-105.271028c17.62912-40.29513 26.191835-83.108706 26.191835-128.440728 0-53.894737-12.592228-104.767339-37.272996-152.617806-24.680767-47.850467-59.435317-87.138219-104.26365-118.366945-15.110674-10.577472-24.177078-24.680767-27.199213-42.309887-3.022135-18.132809 0.503689-34.250861 11.081161-49.361535 10.577472-14.606985 24.680767-23.1697 42.309887-26.191835C754.526316 148.588293 771.148057 152.617806 786.258731 162.691589L786.258731 162.691589zM520.81456 543.98426c-18.132809 0-33.243483-6.547959-45.835711-19.140187-12.592228-12.592228-19.140187-28.206591-19.140187-45.835711l0-392.877521c0-18.132809 6.547959-33.243483 19.140187-46.3394 12.592228-13.095917 28.206591-19.643876 45.835711-19.643876 18.636498 0 34.250861 6.547959 46.843089 19.643876 12.592228 13.095917 19.140187 28.71028 19.140187 46.3394l0 392.877521c0 18.132809-6.547959 33.243483-19.140187 45.835711C555.065421 537.436301 539.451058 543.98426 520.81456 543.98426L520.81456 543.98426zM520.81456 543.98426" p-id="7763"></path></svg>