<?xml version="1.0" standalone="no"?><!DOCTYPE svg PUBLIC "-//W3C//DTD SVG 1.1//EN" "http://www.w3.org/Graphics/SVG/1.1/DTD/svg11.dtd"><svg t="1547099912603" class="icon" style="" viewBox="0 0 1357 1024" version="1.1" xmlns="http://www.w3.org/2000/svg" p-id="3685" xmlns:xlink="http://www.w3.org/1999/xlink" width="265.0390625" height="200"><defs><style type="text/css"></style></defs><path d="M678.720121 1024C169.68003 1024 0 512.032173 0 512.032173S169.68003 0 678.720121 0s678.720121 512.032173 678.72012 512.032173-169.68003 511.967827-678.72012 511.967827z m0-853.322609c-187.439487 0-339.36006 152.821415-339.360061 341.354782 0 188.501194 151.920573 341.322609 339.360061 341.322609s339.36006-152.821415 339.36006-341.322609c0-188.533367-151.920573-341.354782-339.36006-341.354782z m0 512c-93.719744 0-169.68003-76.410708-169.680031-170.645218 0-2.927737 0.707804-5.59809 0.836497-8.461481 13.158728 4.632902 26.832223 8.46148 41.567425 8.461481 70.297851 0 127.276109-57.33216 127.276109-128.016087 0-14.83172-3.764233-28.569561-8.397135-41.824808 2.831218-0.160865 5.533744-0.836496 8.397135-0.836496 93.719744 0 169.68003 76.378535 169.68003 170.677391 0 94.23451-75.960287 170.645218-169.68003 170.645218z" p-id="3686"></path></svg>