<?xml version="1.0" standalone="no"?><!DOCTYPE svg PUBLIC "-//W3C//DTD SVG 1.1//EN" "http://www.w3.org/Graphics/SVG/1.1/DTD/svg11.dtd"><svg t="1547703110066" class="icon" style="" viewBox="0 0 1024 1024" version="1.1" xmlns="http://www.w3.org/2000/svg" p-id="8034" xmlns:xlink="http://www.w3.org/1999/xlink" width="200" height="200"><defs><style type="text/css"></style></defs><path d="M487.188406 758.87569c5.999644 6.80601 14.746866 10.732435 23.952528 10.776438h0.109494c9.16166 0 17.865903-3.882424 23.908526-10.601452 7.743358-8.725732 16.077164-17.930371 24.802896-27.530007 96.006588-106.150622 229.424226-244.576321 229.424226-375.596354 0-148.994406-123.884518-270.219351-276.239461-270.219351-152.331407 0-276.260951 121.224945-276.260951 270.219351 0 128.423905 126.742613 264.908392 220.655515 369.619222 10.538007 11.780301 20.528546 22.904663 29.647227 33.332153z m-94.587262-418.373622c0-65.051575 54.101175-117.952412 120.546494-117.952413 66.51388 0 120.593566 52.900837 120.593565 117.952413 0 65.029062-54.079686 117.952412-120.593565 117.952412-66.491367-0.001023-120.546493-52.92335-120.546494-117.952412zM955.464579 891.029546L844.667124 643.039475c-5.059226-11.255345-16.470113-18.542308-29.03529-18.542308h-82.416058c-17.538445 0-31.739888 13.917988-31.739889 31.020504 0 17.190521 14.201443 31.063483 31.739889 31.063483h61.671594l82.917478 185.906084h-730.773655l91.665722-185.906084h51.330063c17.539468 0 31.740912-13.873985 31.740911-31.020504s-14.201443-31.063483-31.740911-31.063483h-71.15969c-12.173251 0-23.254633 6.804986-28.576849 17.495466L67.822177 889.982704c-4.799306 9.598612-4.14439 20.941961 1.636266 30.017664 5.780657 9.030677 15.94618 14.57188 26.897604 14.57188h830.050729c10.733459 0 20.723997-5.324262 26.571169-14.092973 5.845125-8.768711 6.80601-19.85214 2.486634-29.449729z" p-id="8035"></path></svg>