<?xml version="1.0" standalone="no"?><!DOCTYPE svg PUBLIC "-//W3C//DTD SVG 1.1//EN" "http://www.w3.org/Graphics/SVG/1.1/DTD/svg11.dtd"><svg t="1547726223003" class="icon" style="" viewBox="0 0 1024 1024" version="1.1" xmlns="http://www.w3.org/2000/svg" p-id="2763" xmlns:xlink="http://www.w3.org/1999/xlink" width="200" height="200"><defs><style type="text/css"></style></defs><path d="M493.226667 1022.634667C385.365333 877.653333 274.048 738.133333 173.866667 591.189333 12.8 355.072 157.525333 46.677333 435.370667 4.650667 678.613333-32.256 887.893333 155.818667 878.506667 398.506667c-2.858667 75.008-27.306667 143.146667-72.021334 203.648-99.413333 134.442667-199.594667 268.245333-299.392 402.389333-3.925333 5.418667-8.149333 10.581333-13.909333 18.090667M345.472 379.178667c-0.128 80.768 67.754667 147.84 148.650667 147.029333 80.896-0.853333 148.053333-67.072 148.053333-146.261333 0-79.488-67.029333-145.408-148.266667-145.664C412.16 234.24 345.6 299.178667 345.472 379.178667" p-id="2764"></path></svg>