<?xml version="1.0" standalone="no"?><!DOCTYPE svg PUBLIC "-//W3C//DTD SVG 1.1//EN" "http://www.w3.org/Graphics/SVG/1.1/DTD/svg11.dtd"><svg t="1547687221475" class="icon" style="" viewBox="0 0 1024 1024" version="1.1" xmlns="http://www.w3.org/2000/svg" p-id="2095" xmlns:xlink="http://www.w3.org/1999/xlink" width="200" height="200"><defs><style type="text/css"></style></defs><path d="M991.858 276.423L559.559 45.682c-29.81-16.384-74.752-16.384-104.562 0L30.265 276.423C11.548 286.948 0.455 302.706 0.455 320.796s11.662 34.475 30.948 45L463.7 596.536c15.19 8.193 33.906 12.289 52.566 12.289 18.716 0 37.376-4.096 51.996-12.288l424.733-230.741c18.716-10.525 29.81-26.283 29.81-44.374 0.056-18.09-11.663-34.474-30.948-44.999zM543.8 550.457c-14.052 7.566-40.334 7.566-54.898 0L58.88 321.422 480.711 92.444c14.052-7.623 40.334-7.623 54.898 0l429.966 228.978-421.774 229.035z" p-id="2096"></path><path d="M516.324 794.624c-18.717 0-37.376-4.096-52.566-12.288L31.403 551.595c-12.857-6.998-17.522-22.813-11.094-35.613 6.998-12.857 22.813-17.522 35.613-11.093L488.22 735.63c14.62 7.623 40.904 7.623 54.898 0L967.851 504.89c12.857-6.997 28.615-2.333 35.612 10.524 6.997 12.857 2.333 28.615-10.524 35.613L568.32 781.824c-14.62 8.76-33.28 12.8-51.996 12.8z" p-id="2097"></path><path d="M516.324 990.948c-18.717 0-37.376-4.096-52.566-12.288L31.403 747.918c-12.857-6.997-17.522-22.812-11.094-35.612 6.998-12.857 22.813-17.522 35.613-11.094L488.22 931.954c14.62 7.623 40.904 7.623 54.898 0l424.733-230.742c12.857-6.997 28.615-2.332 35.612 10.525 6.997 12.857 2.333 28.615-10.524 35.612L568.32 978.091c-14.62 8.76-33.28 12.857-51.996 12.857z" p-id="2098"></path></svg>