<?xml version="1.0" standalone="no"?><!DOCTYPE svg PUBLIC "-//W3C//DTD SVG 1.1//EN" "http://www.w3.org/Graphics/SVG/1.1/DTD/svg11.dtd"><svg t="1547688918052" class="icon" style="" viewBox="0 0 1024 1024" version="1.1" xmlns="http://www.w3.org/2000/svg" p-id="19640" xmlns:xlink="http://www.w3.org/1999/xlink" width="200" height="200"><defs><style type="text/css"></style></defs><path d="M592.124018 402.887111a113.777778 113.777778 0 0 1-160.910222 0l-40.220445-40.248889 80.440889-80.440889-124.586667-124.586666a28.444444 28.444444 0 0 0-40.220444 0l-241.351111 241.351111a28.444444 28.444444 0 0 0 0 40.220444l426.268444 426.296889a28.444444 28.444444 0 0 0 40.220445 0l20.138666-20.110222-60.359111-60.330667a28.444444 28.444444 0 1 1 40.220445-40.220444l60.359111 60.302222 40.220444-40.192-60.330666-60.359111a28.444444 28.444444 0 1 1 40.220444-40.220445l60.330667 60.330667 40.220444-40.220444-60.302222-60.330667a28.444444 28.444444 0 1 1 40.192-40.220444l60.359111 60.330666 20.110222-20.110222a28.444444 28.444444 0 0 0 0-40.220444l-181.020444-181.020445z m221.240889 261.461333l-241.351111 241.351112a85.333333 85.333333 0 0 1-120.689778 0L25.027129 479.431111a85.333333 85.333333 0 0 1 0-120.689778l241.379555-241.351111a85.333333 85.333333 0 0 1 120.661334 0l124.586666 124.586667 124.700445-124.700445a85.333333 85.333333 0 0 1 120.689778 0l241.351111 241.351112a85.333333 85.333333 0 0 1 0 120.689777l-185.031111 185.031111z" p-id="19641"></path></svg>