<?xml version="1.0" standalone="no"?><!DOCTYPE svg PUBLIC "-//W3C//DTD SVG 1.1//EN" "http://www.w3.org/Graphics/SVG/1.1/DTD/svg11.dtd"><svg t="1547688912936" class="icon" style="" viewBox="0 0 1024 1024" version="1.1" xmlns="http://www.w3.org/2000/svg" p-id="19515" xmlns:xlink="http://www.w3.org/1999/xlink" width="200" height="200"><defs><style type="text/css"></style></defs><path d="M592.124 402.887a113.778 113.778 0 0 1-160.91 0l-40.22-40.249 80.44-80.44L346.848 157.61a28.444 28.444 0 0 0-40.22 0L65.275 398.96a28.444 28.444 0 0 0 0 40.221L491.544 865.48a28.444 28.444 0 0 0 40.22 0l20.14-20.11-60.36-60.33a28.444 28.444 0 1 1 40.22-40.221l60.36 60.302 40.22-40.192-60.33-60.36a28.444 28.444 0 1 1 40.22-40.22l60.33 60.331 40.221-40.22-60.302-60.331a28.444 28.444 0 1 1 40.192-40.22l60.36 60.33 20.11-20.11a28.444 28.444 0 0 0 0-40.22l-181.021-181.02z m40.22-40.249l181.02 181.02a85.31 85.31 0 0 1 16.67 23.553l128.142-128.143a28.444 28.444 0 0 0 0-40.22L716.824 157.497a28.444 28.444 0 0 0-40.22 0l-205.17 205.141a56.889 56.889 0 0 0 80.47 0l60.302-60.302a28.444 28.444 0 1 1 40.249 40.192l-20.11 20.11z m181.02 301.71L572.015 905.7a85.333 85.333 0 0 1-120.69 0L25.027 479.43a85.333 85.333 0 0 1 0-120.69l241.38-241.35a85.333 85.333 0 0 1 120.661 0l124.587 124.586 124.7-124.7a85.333 85.333 0 0 1 120.69 0l241.351 241.35a85.333 85.333 0 0 1 0 120.69L813.365 664.348z" p-id="19516"></path></svg>